#!OML:ASF F:\VICON\USERDATA\INSTALL\rory3\rory3.ASF
:FULLY-SPECIFIED
:DEGREES
422
root 4.19947 16.6315 -15.7644 26.9875 8.76311 -2.26082
lowerback -12.1703 1.2701 4.86801
upperback -17.9251 2.45612 8.47933
thorax -13.4321 1.4791 6.85117
lowerneck -3.28644 -4.76947 -0.334587
upperneck -5.22789 -6.93086 -13.7016
head -1.65459 -3.33056 -4.44345
rclavicle 1.90833e-014 4.45278e-014
rhumerus 75.8764 11.5962 -65.5037
rradius 84.2642
rwrist -93.0447
rhand -6.21738 5.23003
rfingers 7.12502
rthumb 19.6234 -23.7996
lclavicle 1.90833e-014 4.45278e-014
lhumerus -74.7205 -19.1504 122.142
lradius 37.6703
lwrist 2.59554
lhand 20.6645 13.2861
lfingers 7.12502
lthumb 45.1536 36.725
rfemur -42.8451 2.85011 33.2754
rtibia 29.837
rfoot -28.8736 -30.2757
rtoes 28.6076
lfemur -21.5629 19.3522 -28.3612
ltibia 41.5639
lfoot 49.4389 17.0767
ltoes -18.8162
423
root 4.18974 16.6326 -15.7677 27.2602 9.02817 -2.18104
lowerback -11.6278 1.22714 5.09251
upperback -18.3765 2.50012 8.37687
thorax -14.3424 1.47797 6.64352
lowerneck -3.09051 -4.71166 -0.165262
upperneck -5.1456 -6.87916 -14.168
head -1.68824 -3.30097 -4.64375
rclavicle 3.02153e-014 -7.31528e-014
rhumerus 76.384 12.2417 -66.0688
rradius 82.4233
rwrist -91.7973
rhand -5.37316 5.80317
rfingers 7.12502
rthumb 20.4348 -23.1415
lclavicle 3.02153e-014 -7.31528e-014
lhumerus -75.5134 -18.8178 121.968
lradius 38.208
lwrist 2.72523
lhand 20.8193 13.3728
lfingers 7.12502
lthumb 45.2975 36.7542
rfemur -43.162 3.37648 32.976
rtibia 29.8318
rfoot -29.6569 -30.5353
rtoes 28.952
lfemur -21.8736 19.1498 -28.3772
ltibia 41.4905
lfoot 48.977 20.025
ltoes -13.8422
424
root 4.18435 16.6322 -15.766 27.3212 9.07576 -2.11123
lowerback -11.3611 1.42739 5.2089
upperback -18.6102 2.80277 8.04918
thorax -14.8086 1.58692 6.21071
lowerneck -2.27487 -5.00875 1.04091
upperneck -5.92496 -7.53436 -15.8323
head -2.00981 -3.53557 -4.83396
rclavicle 7.15625e-015 -1.27222e-014
rhumerus 76.6519 12.2257 -66.5174
rradius 80.6802
rwrist -90.5287
rhand -4.89808 6.04876
rfingers 7.12502
rthumb 20.8913 -22.8463
lclavicle 7.15625e-015 -1.27222e-014
lhumerus -76.4693 -19.325 122.24
lradius 38.6913
lwrist 3.1191
lhand 21.3979 13.9016
lfingers 7.12502
lthumb 45.8351 37.0645
rfemur -43.2 3.64829 32.7821
rtibia 29.8011
rfoot -30.1224 -30.5133
rtoes 29.2181
lfemur -21.9863 19.1224 -28.4078
ltibia 41.5954
lfoot 48.68 20.9156
ltoes -12.0867
425
root 4.17763 16.6287 -15.7657 27.4451 9.04762 -1.8995
lowerback -11.4351 1.96369 4.96549
upperback -18.936 3.50874 7.26397
thorax -15.1856 1.90122 5.44227
lowerneck -1.90339 -5.48416 1.94596
upperneck -5.24907 -8.12926 -16.2192
head -1.97672 -3.8604 -5.07797
rclavicle -2.38542e-015 -3.81667e-014
rhumerus 76.1577 11.1229 -66.7496
rradius 79.129
rwrist -89.3534
rhand -4.73666 6.0289
rfingers 7.12502
rthumb 21.0464 -22.849
lclavicle -2.38542e-015 -3.81667e-014
lhumerus -78.384 -21.2138 123.782
lradius 38.8969
lwrist 4.09376
lhand 21.1184 14.1571
lfingers 7.12502
lthumb 45.5754 37.4263
rfemur -43.2796 3.83681 32.4854
rtibia 29.7413
rfoot -30.2461 -30.6776
rtoes 29.3144
lfemur -22.121 19.1013 -28.6307
ltibia 41.6607
lfoot 48.642 20.4825
ltoes -12.6348
426
root 4.17259 16.6206 -15.7638 27.5622 9.10321 -1.89568
lowerback -11.6249 1.774 5.03214
upperback -18.4411 3.21624 7.7846
thorax -14.4364 1.78863 5.98429
lowerneck -4.18401 -4.96955 0.958273
upperneck -4.7538 -7.25028 -16.2581
head -1.33015 -3.53556 -5.0289
rclavicle -2.38542e-014 7.95139e-014
rhumerus 78.2647 12.1502 -66.7843
rradius 77.5031
rwrist -88.2333
rhand -4.57707 6.14258
rfingers 7.12502
rthumb 21.1997 -22.7182
lclavicle -2.38542e-014 7.95139e-014
lhumerus -77.0352 -20.9494 123.444
lradius 39.1119
lwrist 4.48552
lhand 20.6667 13.9735
lfingers 7.12502
lthumb 45.1556 37.4115
rfemur -43.317 3.83433 32.5486
rtibia 29.6415
rfoot -30.2923 -30.5957
rtoes 29.4611
lfemur -22.3076 19.1421 -28.6238
ltibia 41.7841
lfoot 48.6539 19.7014
ltoes -13.6769
427
root 4.17177 16.6152 -15.76 27.5762 9.20585 -2.00039
lowerback -11.6079 1.83366 5.26512
upperback -18.448 3.29939 7.82195
thorax -14.4594 1.80274 5.89793
lowerneck -4.3358 -4.94876 0.982874
upperneck -4.64785 -7.21838 -16.6621
head -1.28435 -3.53027 -5.16406
rclavicle -4.77083e-015 -7.31528e-014
rhumerus 78.9773 12.6194 -67.2309
rradius 75.5619
rwrist -86.9909
rhand -4.39177 6.29952
rfingers 7.12502
rthumb 21.3777 -22.5412
lclavicle -4.77083e-015 -7.31528e-014
lhumerus -77.3176 -20.8394 123.168
lradius 39.8117
lwrist 4.15271
lhand 20.9781 13.9351
lfingers 7.12502
lthumb 45.4452 37.2572
rfemur -43.2843 3.57161 32.8374
rtibia 29.5742
rfoot -29.974 -30.5871
rtoes 29.5934
lfemur -22.3656 19.2039 -28.4727
ltibia 41.9177
lfoot 48.732 18.8045
ltoes -14.9197
